<svg xmlns="http://www.w3.org/2000/svg" direction="ltr" width="1024" height="1024" viewBox="25983.013952301466 19233.043458390614 1024 1024" stroke-linecap="round" stroke-linejoin="round" data-color-mode="light" class="tl-container tl-theme__force-sRGB tl-theme__light" style="background-color: transparent;"><defs/><g transform="matrix(1, 0, 0, 1, 25983.014, 19233.0435)" opacity="1"><g data-lovart-layer-name="SVG 3"><g transform="scale(1, 1)"><g>
<path xmlns="http://www.w3.org/2000/svg" stroke="#dab8a6" stroke-width="2.00" fill="none" stroke-linecap="butt" vector-effect="non-scaling-stroke" d="   M 775.50 265.95   C 775.48 264.85 774.56 263.40 773.38 263.37   Q 768.50 263.29 659.83 263.31   A 1.17 1.16 16.0 0 1 658.84 261.53   Q 659.92 259.81 661.80 257.56   Q 667.86 250.29 711.46 198.00   Q 713.82 195.17 711.08 193.07   Q 699.79 184.42 691.16 177.34   C 688.99 175.56 686.43 174.32 684.43 176.68   Q 651.35 215.74 536.86 353.08   C 535.24 355.03 534.03 355.82 532.24 353.50   Q 521.13 339.10 485.82 294.48   C 484.40 292.69 484.25 291.81 484.98 289.71   Q 500.29 245.94 524.01 178.52   Q 536.06 144.26 539.67 132.97   Q 540.73 129.65 537.73 128.56   Q 532.25 126.58 513.39 120.49   Q 510.09 119.42 509.13 122.16   Q 485.10 190.44 460.07 260.32   Q 459.80 261.05 459.40 261.53   A 0.96 0.96 0.0 0 1 457.90 261.50   Q 406.49 194.93 382.80 163.88   C 381.31 161.92 379.29 160.25 377.09 161.86   Q 364.55 171.03 352.37 180.11   Q 350.00 181.88 350.98 184.62   A 1.36 1.16 22.0 0 0 351.11 184.87   Q 354.29 189.12 376.74 218.26   Q 481.45 354.15 483.51 357.12   Q 485.47 359.96 493.58 370.04   C 495.28 372.15 495.92 380.96 495.93 382.75   Q 496.03 442.73 495.80 494.71   A 1.44 1.44 0.0 0 1 493.99 496.10   Q 492.92 495.82 491.24 494.61   Q 479.38 486.06 447.98 465.13   Q 418.26 445.30 374.09 416.93   Q 372.19 415.70 371.65 413.04   Q 354.21 327.10 346.45 287.99   Q 345.62 283.81 341.08 285.01   Q 325.75 289.06 317.29 291.28   A 2.04 1.98 -67.6 0 0 316.69 291.54   Q 314.28 293.11 314.78 295.80   Q 322.88 339.12 333.17 391.08   A 1.46 1.45 84.8 0 1 331.73 392.82   Q 331.04 392.82 330.36 392.40   Q 275.68 358.84 230.84 332.43   C 228.48 331.03 226.14 330.06 224.59 332.89   Q 215.32 349.82 211.71 356.10   C 210.10 358.89 209.76 360.95 212.78 362.74   Q 280.06 402.52 339.29 438.96   C 348.16 444.42 358.31 451.09 367.33 457.04   A 2.65 2.51 25.4 0 1 368.44 459.91   Q 368.06 461.17 366.30 461.70   Q 361.56 463.11 353.66 465.61   Q 332.51 472.31 248.71 498.47   C 246.03 499.30 244.25 500.44 245.09 503.42   Q 246.04 506.79 251.79 527.11   C 252.79 530.66 253.86 532.40 257.80 531.11   Q 367.84 494.95 395.06 486.09   Q 400.17 484.43 404.29 487.46   Q 449.34 520.57 491.86 551.89   C 496.38 555.22 495.57 561.54 495.62 566.64   Q 496.10 621.36 492.96 675.49   Q 490.66 715.26 485.37 750.72   Q 482.78 768.12 479.12 784.63   C 475.75 799.80 471.10 814.97 462.60 827.79   A 1.94 1.92 -27.0 0 0 462.29 828.73   C 462.14 831.76 464.23 832.54 467.21 832.54   Q 546.19 832.44 604.12 832.48   Q 607.19 832.48 607.71 832.02   Q 609.22 830.67 609.12 828.77   A 2.10 2.06 26.6 0 0 608.75 827.69   C 599.71 814.99 594.01 799.60 590.36 784.68   Q 586.12 767.33 583.32 748.99   C 575.75 699.41 573.45 652.26 572.97 601.00   Q 572.95 598.33 573.54 596.79   A 3.04 3.03 -79.7 0 1 576.38 594.82   Q 667.36 594.75 752.33 594.80   Q 755.85 594.81 755.87 591.66   Q 756.09 549.99 755.84 534.50   Q 755.78 531.10 752.87 531.10   Q 717.58 531.17 576.26 531.09   Q 573.00 531.09 572.90 528.58   Q 572.72 523.99 572.72 522.50   Q 572.94 469.79 572.68 453.75   Q 572.61 448.95 572.87 447.10   C 573.40 443.32 576.03 443.64 579.00 443.64   Q 635.13 443.57 792.33 443.69   C 795.13 443.69 798.06 443.89 798.15 440.72   Q 798.41 431.94 798.23 374.94   C 798.22 372.65 797.56 370.65 795.06 370.65   Q 669.75 370.58 579.00 370.68   A 1.48 1.47 84.8 0 1 577.55 369.46   Q 577.48 369.06 577.93 368.42   Q 603.83 332.02 632.86 295.41   A 3.33 3.33 0.0 0 1 635.47 294.15   Q 693.38 294.05 771.58 294.13   C 773.73 294.13 775.55 293.64 775.56 291.25   Q 775.66 276.81 775.50 265.95"/>
<path xmlns="http://www.w3.org/2000/svg" fill="#b88268" d="   M 512.43 57.59   Q 725.62 57.55 742.75 57.42   Q 762.91 57.26 781.53 61.21   Q 787.96 62.57 799.49 66.34   C 822.65 73.91 843.97 86.67 861.55 102.46   C 895.31 132.77 916.03 173.65 921.11 219.08   Q 922.08 227.69 921.99 249.96   Q 921.89 275.36 922.01 738.01   Q 922.03 776.83 908.53 810.01   Q 892.80 848.70 861.84 876.61   Q 819.58 914.71 762.23 921.57   Q 755.88 922.33 741.50 922.43   Q 700.19 922.71 512.56 922.74   Q 324.92 922.77 283.61 922.50   Q 269.23 922.40 262.88 921.65   Q 205.53 914.80 163.26 876.71   Q 132.29 848.81 116.55 810.13   Q 103.04 776.95 103.04 738.13   Q 103.03 275.48 102.92 250.08   Q 102.82 227.81 103.79 219.20   C 108.86 173.77 129.56 132.89 163.31 102.56   C 180.89 86.77 202.21 74.00 225.36 66.43   Q 236.89 62.65 243.32 61.29   Q 261.94 57.34 282.10 57.49   Q 299.23 57.62 512.43 57.59   Z   M 775.50 265.95   C 775.48 264.85 774.56 263.40 773.38 263.37   Q 768.50 263.29 659.83 263.31   A 1.17 1.16 16.0 0 1 658.84 261.53   Q 659.92 259.81 661.80 257.56   Q 667.86 250.29 711.46 198.00   Q 713.82 195.17 711.08 193.07   Q 699.79 184.42 691.16 177.34   C 688.99 175.56 686.43 174.32 684.43 176.68   Q 651.35 215.74 536.86 353.08   C 535.24 355.03 534.03 355.82 532.24 353.50   Q 521.13 339.10 485.82 294.48   C 484.40 292.69 484.25 291.81 484.98 289.71   Q 500.29 245.94 524.01 178.52   Q 536.06 144.26 539.67 132.97   Q 540.73 129.65 537.73 128.56   Q 532.25 126.58 513.39 120.49   Q 510.09 119.42 509.13 122.16   Q 485.10 190.44 460.07 260.32   Q 459.80 261.05 459.40 261.53   A 0.96 0.96 0.0 0 1 457.90 261.50   Q 406.49 194.93 382.80 163.88   C 381.31 161.92 379.29 160.25 377.09 161.86   Q 364.55 171.03 352.37 180.11   Q 350.00 181.88 350.98 184.62   A 1.36 1.16 22.0 0 0 351.11 184.87   Q 354.29 189.12 376.74 218.26   Q 481.45 354.15 483.51 357.12   Q 485.47 359.96 493.58 370.04   C 495.28 372.15 495.92 380.96 495.93 382.75   Q 496.03 442.73 495.80 494.71   A 1.44 1.44 0.0 0 1 493.99 496.10   Q 492.92 495.82 491.24 494.61   Q 479.38 486.06 447.98 465.13   Q 418.26 445.30 374.09 416.93   Q 372.19 415.70 371.65 413.04   Q 354.21 327.10 346.45 287.99   Q 345.62 283.81 341.08 285.01   Q 325.75 289.06 317.29 291.28   A 2.04 1.98 -67.6 0 0 316.69 291.54   Q 314.28 293.11 314.78 295.80   Q 322.88 339.12 333.17 391.08   A 1.46 1.45 84.8 0 1 331.73 392.82   Q 331.04 392.82 330.36 392.40   Q 275.68 358.84 230.84 332.43   C 228.48 331.03 226.14 330.06 224.59 332.89   Q 215.32 349.82 211.71 356.10   C 210.10 358.89 209.76 360.95 212.78 362.74   Q 280.06 402.52 339.29 438.96   C 348.16 444.42 358.31 451.09 367.33 457.04   A 2.65 2.51 25.4 0 1 368.44 459.91   Q 368.06 461.17 366.30 461.70   Q 361.56 463.11 353.66 465.61   Q 332.51 472.31 248.71 498.47   C 246.03 499.30 244.25 500.44 245.09 503.42   Q 246.04 506.79 251.79 527.11   C 252.79 530.66 253.86 532.40 257.80 531.11   Q 367.84 494.95 395.06 486.09   Q 400.17 484.43 404.29 487.46   Q 449.34 520.57 491.86 551.89   C 496.38 555.22 495.57 561.54 495.62 566.64   Q 496.10 621.36 492.96 675.49   Q 490.66 715.26 485.37 750.72   Q 482.78 768.12 479.12 784.63   C 475.75 799.80 471.10 814.97 462.60 827.79   A 1.94 1.92 -27.0 0 0 462.29 828.73   C 462.14 831.76 464.23 832.54 467.21 832.54   Q 546.19 832.44 604.12 832.48   Q 607.19 832.48 607.71 832.02   Q 609.22 830.67 609.12 828.77   A 2.10 2.06 26.6 0 0 608.75 827.69   C 599.71 814.99 594.01 799.60 590.36 784.68   Q 586.12 767.33 583.32 748.99   C 575.75 699.41 573.45 652.26 572.97 601.00   Q 572.95 598.33 573.54 596.79   A 3.04 3.03 -79.7 0 1 576.38 594.82   Q 667.36 594.75 752.33 594.80   Q 755.85 594.81 755.87 591.66   Q 756.09 549.99 755.84 534.50   Q 755.78 531.10 752.87 531.10   Q 717.58 531.17 576.26 531.09   Q 573.00 531.09 572.90 528.58   Q 572.72 523.99 572.72 522.50   Q 572.94 469.79 572.68 453.75   Q 572.61 448.95 572.87 447.10   C 573.40 443.32 576.03 443.64 579.00 443.64   Q 635.13 443.57 792.33 443.69   C 795.13 443.69 798.06 443.89 798.15 440.72   Q 798.41 431.94 798.23 374.94   C 798.22 372.65 797.56 370.65 795.06 370.65   Q 669.75 370.58 579.00 370.68   A 1.48 1.47 84.8 0 1 577.55 369.46   Q 577.48 369.06 577.93 368.42   Q 603.83 332.02 632.86 295.41   A 3.33 3.33 0.0 0 1 635.47 294.15   Q 693.38 294.05 771.58 294.13   C 773.73 294.13 775.55 293.64 775.56 291.25   Q 775.66 276.81 775.50 265.95   Z"/>
<path xmlns="http://www.w3.org/2000/svg" fill="#fbeee4" d="   M 773.38 263.37   C 774.56 263.40 775.48 264.85 775.50 265.95   Q 775.66 276.81 775.56 291.25   C 775.55 293.64 773.73 294.13 771.58 294.13   Q 693.38 294.05 635.47 294.15   A 3.33 3.33 0.0 0 0 632.86 295.41   Q 603.83 332.02 577.93 368.42   Q 577.48 369.06 577.55 369.46   A 1.48 1.47 84.8 0 0 579.00 370.68   Q 669.75 370.58 795.06 370.65   C 797.56 370.65 798.22 372.65 798.23 374.94   Q 798.41 431.94 798.15 440.72   C 798.06 443.89 795.13 443.69 792.33 443.69   Q 635.13 443.57 579.00 443.64   C 576.03 443.64 573.40 443.32 572.87 447.10   Q 572.61 448.95 572.68 453.75   Q 572.94 469.79 572.72 522.50   Q 572.72 523.99 572.90 528.58   Q 573.00 531.09 576.26 531.09   Q 717.58 531.17 752.87 531.10   Q 755.78 531.10 755.84 534.50   Q 756.09 549.99 755.87 591.66   Q 755.85 594.81 752.33 594.80   Q 667.36 594.75 576.38 594.82   A 3.04 3.03 -79.7 0 0 573.54 596.79   Q 572.95 598.33 572.97 601.00   C 573.45 652.26 575.75 699.41 583.32 748.99   Q 586.12 767.33 590.36 784.68   C 594.01 799.60 599.71 814.99 608.75 827.69   A 2.10 2.06 26.6 0 1 609.12 828.77   Q 609.22 830.67 607.71 832.02   Q 607.19 832.48 604.12 832.48   Q 546.19 832.44 467.21 832.54   C 464.23 832.54 462.14 831.76 462.29 828.73   A 1.94 1.92 -27.0 0 1 462.60 827.79   C 471.10 814.97 475.75 799.80 479.12 784.63   Q 482.78 768.12 485.37 750.72   Q 490.66 715.26 492.96 675.49   Q 496.10 621.36 495.62 566.64   C 495.57 561.54 496.38 555.22 491.86 551.89   Q 449.34 520.57 404.29 487.46   Q 400.17 484.43 395.06 486.09   Q 367.84 494.95 257.80 531.11   C 253.86 532.40 252.79 530.66 251.79 527.11   Q 246.04 506.79 245.09 503.42   C 244.25 500.44 246.03 499.30 248.71 498.47   Q 332.51 472.31 353.66 465.61   Q 361.56 463.11 366.30 461.70   Q 368.06 461.17 368.44 459.91   A 2.65 2.51 25.4 0 0 367.33 457.04   C 358.31 451.09 348.16 444.42 339.29 438.96   Q 280.06 402.52 212.78 362.74   C 209.76 360.95 210.10 358.89 211.71 356.10   Q 215.32 349.82 224.59 332.89   C 226.14 330.06 228.48 331.03 230.84 332.43   Q 275.68 358.84 330.36 392.40   Q 331.04 392.82 331.73 392.82   A 1.46 1.45 84.8 0 0 333.17 391.08   Q 322.88 339.12 314.78 295.80   Q 314.28 293.11 316.69 291.54   A 2.04 1.98 -67.6 0 1 317.29 291.28   Q 325.75 289.06 341.08 285.01   Q 345.62 283.81 346.45 287.99   Q 354.21 327.10 371.65 413.04   Q 372.19 415.70 374.09 416.93   Q 418.26 445.30 447.98 465.13   Q 479.38 486.06 491.24 494.61   Q 492.92 495.82 493.99 496.10   A 1.44 1.44 0.0 0 0 495.80 494.71   Q 496.03 442.73 495.93 382.75   C 495.92 380.96 495.28 372.15 493.58 370.04   Q 485.47 359.96 483.51 357.12   Q 481.45 354.15 376.74 218.26   Q 354.29 189.12 351.11 184.87   A 1.36 1.16 22.0 0 1 350.98 184.62   Q 350.00 181.88 352.37 180.11   Q 364.55 171.03 377.09 161.86   C 379.29 160.25 381.31 161.92 382.80 163.88   Q 406.49 194.93 457.90 261.50   A 0.96 0.96 0.0 0 0 459.40 261.53   Q 459.80 261.05 460.07 260.32   Q 485.10 190.44 509.13 122.16   Q 510.09 119.42 513.39 120.49   Q 532.25 126.58 537.73 128.56   Q 540.73 129.65 539.67 132.97   Q 536.06 144.26 524.01 178.52   Q 500.29 245.94 484.98 289.71   C 484.25 291.81 484.40 292.69 485.82 294.48   Q 521.13 339.10 532.24 353.50   C 534.03 355.82 535.24 355.03 536.86 353.08   Q 651.35 215.74 684.43 176.68   C 686.43 174.32 688.99 175.56 691.16 177.34   Q 699.79 184.42 711.08 193.07   Q 713.82 195.17 711.46 198.00   Q 667.86 250.29 661.80 257.56   Q 659.92 259.81 658.84 261.53   A 1.17 1.16 16.0 0 0 659.83 263.31   Q 768.50 263.29 773.38 263.37   Z"/>
</g></g></g></g></svg>